<?xml version="1.0" encoding="utf-8" standalone="no"?>
<!DOCTYPE svg PUBLIC "-//W3C//DTD SVG 1.1//EN"
  "http://www.w3.org/Graphics/SVG/1.1/DTD/svg11.dtd">
<svg xmlns:xlink="http://www.w3.org/1999/xlink" width="460.8pt" height="345.6pt" viewBox="0 0 460.8 345.6" xmlns="http://www.w3.org/2000/svg" version="1.1">
 <metadata>
  <rdf:RDF xmlns:dc="http://purl.org/dc/elements/1.1/" xmlns:cc="http://creativecommons.org/ns#" xmlns:rdf="http://www.w3.org/1999/02/22-rdf-syntax-ns#">
   <cc:Work>
    <dc:type rdf:resource="http://purl.org/dc/dcmitype/StillImage"/>
    <dc:date>2022-10-27T14:52:45.256300</dc:date>
    <dc:format>image/svg+xml</dc:format>
    <dc:creator>
     <cc:Agent>
      <dc:title>Matplotlib v3.5.1, https://matplotlib.org/</dc:title>
     </cc:Agent>
    </dc:creator>
   </cc:Work>
  </rdf:RDF>
 </metadata>
 <defs>
  <style type="text/css">*{stroke-linejoin: round; stroke-linecap: butt}</style>
 </defs>
 <g id="figure_1">
  <g id="patch_1">
   <path d="M 0 345.6 
L 460.8 345.6 
L 460.8 0 
L 0 0 
z
" style="fill: #ffffff"/>
  </g>
  <g id="axes_1">
   <g id="patch_2">
    <path d="M 57.6 307.584 
L 414.72 307.584 
L 414.72 41.472 
L 57.6 41.472 
z
" style="fill: #ffffff"/>
   </g>
   <g id="PathCollection_1">
    <defs>
     <path id="mb2843c0d46" d="M 0 3 
C 0.795609 3 1.55874 2.683901 2.12132 2.12132 
C 2.683901 1.55874 3 0.795609 3 0 
C 3 -0.795609 2.683901 -1.55874 2.12132 -2.12132 
C 1.55874 -2.683901 0.795609 -3 0 -3 
C -0.795609 -3 -1.55874 -2.683901 -2.12132 -2.12132 
C -2.683901 -1.55874 -3 -0.795609 -3 0 
C -3 0.795609 -2.683901 1.55874 -2.12132 2.12132 
C -1.55874 2.683901 -0.795609 3 0 3 
z
" style="stroke: #000080"/>
    </defs>
    <g clip-path="url(#p3f2117fe73)">
     <use xlink:href="#mb2843c0d46" x="398.487273" y="287.64507" style="fill: #000080; stroke: #000080"/>
     <use xlink:href="#mb2843c0d46" x="106.858276" y="53.87071" style="fill: #000080; stroke: #000080"/>
     <use xlink:href="#mb2843c0d46" x="155.092209" y="53.788152" style="fill: #000080; stroke: #000080"/>
     <use xlink:href="#mb2843c0d46" x="106.858276" y="53.898229" style="fill: #000080; stroke: #000080"/>
     <use xlink:href="#mb2843c0d46" x="398.487273" y="287.865222" style="fill: #000080; stroke: #000080"/>
     <use xlink:href="#mb2843c0d46" x="106.858276" y="54.338534" style="fill: #000080; stroke: #000080"/>
     <use xlink:href="#mb2843c0d46" x="210.462233" y="293.781819" style="fill: #000080; stroke: #000080"/>
     <use xlink:href="#mb2843c0d46" x="210.462233" y="284.783088" style="fill: #000080; stroke: #000080"/>
     <use xlink:href="#mb2843c0d46" x="130.48578" y="54.558686" style="fill: #000080; stroke: #000080"/>
     <use xlink:href="#mb2843c0d46" x="173.094948" y="216.70095" style="fill: #000080; stroke: #000080"/>
     <use xlink:href="#mb2843c0d46" x="173.094948" y="216.618392" style="fill: #000080; stroke: #000080"/>
     <use xlink:href="#mb2843c0d46" x="173.094948" y="216.811026" style="fill: #000080; stroke: #000080"/>
     <use xlink:href="#mb2843c0d46" x="73.832727" y="53.87071" style="fill: #000080; stroke: #000080"/>
     <use xlink:href="#mb2843c0d46" x="272.916513" y="287.617551" style="fill: #000080; stroke: #000080"/>
     <use xlink:href="#mb2843c0d46" x="272.916513" y="287.617551" style="fill: #000080; stroke: #000080"/>
     <use xlink:href="#mb2843c0d46" x="210.462233" y="266.372841" style="fill: #000080; stroke: #000080"/>
     <use xlink:href="#mb2843c0d46" x="73.832727" y="53.898229" style="fill: #000080; stroke: #000080"/>
     <use xlink:href="#mb2843c0d46" x="210.462233" y="267.941427" style="fill: #000080; stroke: #000080"/>
     <use xlink:href="#mb2843c0d46" x="73.832727" y="54.668762" style="fill: #000080; stroke: #000080"/>
     <use xlink:href="#mb2843c0d46" x="73.832727" y="54.833876" style="fill: #000080; stroke: #000080"/>
     <use xlink:href="#mb2843c0d46" x="398.487273" y="288.030336" style="fill: #000080; stroke: #000080"/>
     <use xlink:href="#mb2843c0d46" x="398.487273" y="288.057856" style="fill: #000080; stroke: #000080"/>
     <use xlink:href="#mb2843c0d46" x="130.48578" y="54.503648" style="fill: #000080; stroke: #000080"/>
     <use xlink:href="#mb2843c0d46" x="130.48578" y="54.1459" style="fill: #000080; stroke: #000080"/>
     <use xlink:href="#mb2843c0d46" x="173.094948" y="216.535835" style="fill: #000080; stroke: #000080"/>
     <use xlink:href="#mb2843c0d46" x="210.462233" y="277.242867" style="fill: #000080; stroke: #000080"/>
     <use xlink:href="#mb2843c0d46" x="130.48578" y="54.173419" style="fill: #000080; stroke: #000080"/>
     <use xlink:href="#mb2843c0d46" x="173.094948" y="217.168774" style="fill: #000080; stroke: #000080"/>
     <use xlink:href="#mb2843c0d46" x="272.916513" y="287.617551" style="fill: #000080; stroke: #000080"/>
     <use xlink:href="#mb2843c0d46" x="173.094948" y="217.609078" style="fill: #000080; stroke: #000080"/>
     <use xlink:href="#mb2843c0d46" x="106.858276" y="55.549372" style="fill: #000080; stroke: #000080"/>
     <use xlink:href="#mb2843c0d46" x="106.858276" y="55.631929" style="fill: #000080; stroke: #000080"/>
     <use xlink:href="#mb2843c0d46" x="210.462233" y="275.344053" style="fill: #000080; stroke: #000080"/>
     <use xlink:href="#mb2843c0d46" x="155.100601" y="55.90712" style="fill: #000080; stroke: #000080"/>
     <use xlink:href="#mb2843c0d46" x="398.487273" y="287.34236" style="fill: #000080; stroke: #000080"/>
     <use xlink:href="#mb2843c0d46" x="398.487273" y="287.590032" style="fill: #000080; stroke: #000080"/>
     <use xlink:href="#mb2843c0d46" x="130.48578" y="55.742005" style="fill: #000080; stroke: #000080"/>
     <use xlink:href="#mb2843c0d46" x="73.832727" y="54.668762" style="fill: #000080; stroke: #000080"/>
     <use xlink:href="#mb2843c0d46" x="155.096405" y="54.200938" style="fill: #000080; stroke: #000080"/>
     <use xlink:href="#mb2843c0d46" x="155.092209" y="53.733114" style="fill: #000080; stroke: #000080"/>
     <use xlink:href="#mb2843c0d46" x="272.916513" y="287.617551" style="fill: #000080; stroke: #000080"/>
     <use xlink:href="#mb2843c0d46" x="155.096405" y="54.173419" style="fill: #000080; stroke: #000080"/>
     <use xlink:href="#mb2843c0d46" x="106.858276" y="54.311014" style="fill: #000080; stroke: #000080"/>
     <use xlink:href="#mb2843c0d46" x="106.858276" y="54.7238" style="fill: #000080; stroke: #000080"/>
     <use xlink:href="#mb2843c0d46" x="210.462233" y="55.824562" style="fill: #000080; stroke: #000080"/>
     <use xlink:href="#mb2843c0d46" x="272.916513" y="60.915587" style="fill: #000080; stroke: #000080"/>
     <use xlink:href="#mb2843c0d46" x="398.487273" y="252.145491" style="fill: #000080; stroke: #000080"/>
     <use xlink:href="#mb2843c0d46" x="73.832727" y="54.586205" style="fill: #000080; stroke: #000080"/>
     <use xlink:href="#mb2843c0d46" x="210.462233" y="55.797043" style="fill: #000080; stroke: #000080"/>
     <use xlink:href="#mb2843c0d46" x="271.11851" y="56.072234" style="fill: #000080; stroke: #000080"/>
     <use xlink:href="#mb2843c0d46" x="130.48578" y="55.549372" style="fill: #000080; stroke: #000080"/>
     <use xlink:href="#mb2843c0d46" x="230.345299" y="54.586205" style="fill: #000080; stroke: #000080"/>
     <use xlink:href="#mb2843c0d46" x="106.858276" y="55.356738" style="fill: #000080; stroke: #000080"/>
     <use xlink:href="#mb2843c0d46" x="209.452573" y="53.595519" style="fill: #000080; stroke: #000080"/>
     <use xlink:href="#mb2843c0d46" x="130.48578" y="54.503648" style="fill: #000080; stroke: #000080"/>
     <use xlink:href="#mb2843c0d46" x="272.916513" y="60.888068" style="fill: #000080; stroke: #000080"/>
     <use xlink:href="#mb2843c0d46" x="398.487273" y="252.283086" style="fill: #000080; stroke: #000080"/>
     <use xlink:href="#mb2843c0d46" x="106.858276" y="53.843191" style="fill: #000080; stroke: #000080"/>
     <use xlink:href="#mb2843c0d46" x="73.832727" y="53.925748" style="fill: #000080; stroke: #000080"/>
     <use xlink:href="#mb2843c0d46" x="173.094948" y="54.503648" style="fill: #000080; stroke: #000080"/>
     <use xlink:href="#mb2843c0d46" x="173.094948" y="54.008305" style="fill: #000080; stroke: #000080"/>
     <use xlink:href="#mb2843c0d46" x="272.916513" y="60.860549" style="fill: #000080; stroke: #000080"/>
     <use xlink:href="#mb2843c0d46" x="73.832727" y="55.411777" style="fill: #000080; stroke: #000080"/>
     <use xlink:href="#mb2843c0d46" x="130.48578" y="53.980786" style="fill: #000080; stroke: #000080"/>
     <use xlink:href="#mb2843c0d46" x="210.462233" y="55.742005" style="fill: #000080; stroke: #000080"/>
     <use xlink:href="#mb2843c0d46" x="173.094948" y="54.778838" style="fill: #000080; stroke: #000080"/>
     <use xlink:href="#mb2843c0d46" x="398.487273" y="252.668353" style="fill: #000080; stroke: #000080"/>
     <use xlink:href="#mb2843c0d46" x="398.487273" y="261.116702" style="fill: #000080; stroke: #000080"/>
     <use xlink:href="#mb2843c0d46" x="210.462233" y="55.989677" style="fill: #000080; stroke: #000080"/>
     <use xlink:href="#mb2843c0d46" x="398.487273" y="295.488" style="fill: #000080; stroke: #000080"/>
     <use xlink:href="#mb2843c0d46" x="130.48578" y="55.549372" style="fill: #000080; stroke: #000080"/>
     <use xlink:href="#mb2843c0d46" x="73.832727" y="55.659448" style="fill: #000080; stroke: #000080"/>
     <use xlink:href="#mb2843c0d46" x="124.399901" y="54.806357" style="fill: #000080; stroke: #000080"/>
     <use xlink:href="#mb2843c0d46" x="272.916513" y="101.313558" style="fill: #000080; stroke: #000080"/>
     <use xlink:href="#mb2843c0d46" x="230.345299" y="54.998991" style="fill: #000080; stroke: #000080"/>
     <use xlink:href="#mb2843c0d46" x="178.425422" y="53.760633" style="fill: #000080; stroke: #000080"/>
     <use xlink:href="#mb2843c0d46" x="272.916513" y="116.971899" style="fill: #000080; stroke: #000080"/>
     <use xlink:href="#mb2843c0d46" x="99.788626" y="54.255976" style="fill: #000080; stroke: #000080"/>
     <use xlink:href="#mb2843c0d46" x="130.48578" y="54.035824" style="fill: #000080; stroke: #000080"/>
     <use xlink:href="#mb2843c0d46" x="173.094948" y="54.421091" style="fill: #000080; stroke: #000080"/>
     <use xlink:href="#mb2843c0d46" x="206.275083" y="54.833876" style="fill: #000080; stroke: #000080"/>
     <use xlink:href="#mb2843c0d46" x="183.655218" y="55.989677" style="fill: #000080; stroke: #000080"/>
     <use xlink:href="#mb2843c0d46" x="158.769743" y="53.815671" style="fill: #000080; stroke: #000080"/>
     <use xlink:href="#mb2843c0d46" x="106.858276" y="54.696281" style="fill: #000080; stroke: #000080"/>
     <use xlink:href="#mb2843c0d46" x="272.916513" y="98.809324" style="fill: #000080; stroke: #000080"/>
     <use xlink:href="#mb2843c0d46" x="398.487273" y="212.435496" style="fill: #000080; stroke: #000080"/>
     <use xlink:href="#mb2843c0d46" x="173.094948" y="54.916434" style="fill: #000080; stroke: #000080"/>
     <use xlink:href="#mb2843c0d46" x="173.094948" y="54.586205" style="fill: #000080; stroke: #000080"/>
     <use xlink:href="#mb2843c0d46" x="272.916513" y="103.542601" style="fill: #000080; stroke: #000080"/>
     <use xlink:href="#mb2843c0d46" x="191.170901" y="54.668762" style="fill: #000080; stroke: #000080"/>
     <use xlink:href="#mb2843c0d46" x="200.154368" y="55.631929" style="fill: #000080; stroke: #000080"/>
     <use xlink:href="#mb2843c0d46" x="106.858276" y="54.118381" style="fill: #000080; stroke: #000080"/>
     <use xlink:href="#mb2843c0d46" x="169.345577" y="53.788152" style="fill: #000080; stroke: #000080"/>
     <use xlink:href="#mb2843c0d46" x="106.858276" y="54.173419" style="fill: #000080; stroke: #000080"/>
     <use xlink:href="#mb2843c0d46" x="73.832727" y="54.7238" style="fill: #000080; stroke: #000080"/>
     <use xlink:href="#mb2843c0d46" x="130.48578" y="54.228457" style="fill: #000080; stroke: #000080"/>
     <use xlink:href="#mb2843c0d46" x="196.74683" y="62.566731" style="fill: #000080; stroke: #000080"/>
     <use xlink:href="#mb2843c0d46" x="272.916513" y="142.399505" style="fill: #000080; stroke: #000080"/>
     <use xlink:href="#mb2843c0d46" x="210.462233" y="57.94353" style="fill: #000080; stroke: #000080"/>
     <use xlink:href="#mb2843c0d46" x="210.462233" y="58.273758" style="fill: #000080; stroke: #000080"/>
     <use xlink:href="#mb2843c0d46" x="192.637175" y="54.393572" style="fill: #000080; stroke: #000080"/>
     <use xlink:href="#mb2843c0d46" x="230.345299" y="55.549372" style="fill: #000080; stroke: #000080"/>
     <use xlink:href="#mb2843c0d46" x="73.832727" y="53.568" style="fill: #000080; stroke: #000080"/>
     <use xlink:href="#mb2843c0d46" x="272.916513" y="122.558267" style="fill: #000080; stroke: #000080"/>
    </g>
   </g>
   <g id="matplotlib.axis_1">
    <g id="xtick_1">
     <g id="line2d_1">
      <path d="M 70.678984 307.584 
L 70.678984 41.472 
" clip-path="url(#p3f2117fe73)" style="fill: none; stroke: #b0b0b0; stroke-width: 0.8; stroke-linecap: square"/>
     </g>
     <g id="line2d_2">
      <defs>
       <path id="m0042957161" d="M 0 0 
L 0 3.5 
" style="stroke: #000000; stroke-width: 0.8"/>
      </defs>
      <g>
       <use xlink:href="#m0042957161" x="70.678984" y="307.584" style="stroke: #000000; stroke-width: 0.8"/>
      </g>
     </g>
     <g id="text_1">
      <!-- 2 -->
      <g transform="translate(67.497734 322.182437)scale(0.1 -0.1)">
       <defs>
        <path id="DejaVuSans-32" d="M 1228 531 
L 3431 531 
L 3431 0 
L 469 0 
L 469 531 
Q 828 903 1448 1529 
Q 2069 2156 2228 2338 
Q 2531 2678 2651 2914 
Q 2772 3150 2772 3378 
Q 2772 3750 2511 3984 
Q 2250 4219 1831 4219 
Q 1534 4219 1204 4116 
Q 875 4013 500 3803 
L 500 4441 
Q 881 4594 1212 4672 
Q 1544 4750 1819 4750 
Q 2544 4750 2975 4387 
Q 3406 4025 3406 3419 
Q 3406 3131 3298 2873 
Q 3191 2616 2906 2266 
Q 2828 2175 2409 1742 
Q 1991 1309 1228 531 
z
" transform="scale(0.015625)"/>
       </defs>
       <use xlink:href="#DejaVuSans-32"/>
      </g>
     </g>
    </g>
    <g id="xtick_2">
     <g id="line2d_3">
      <path d="M 116.948065 307.584 
L 116.948065 41.472 
" clip-path="url(#p3f2117fe73)" style="fill: none; stroke: #b0b0b0; stroke-width: 0.8; stroke-linecap: square"/>
     </g>
     <g id="line2d_4">
      <g>
       <use xlink:href="#m0042957161" x="116.948065" y="307.584" style="stroke: #000000; stroke-width: 0.8"/>
      </g>
     </g>
     <g id="text_2">
      <!-- 4 -->
      <g transform="translate(113.766815 322.182437)scale(0.1 -0.1)">
       <defs>
        <path id="DejaVuSans-34" d="M 2419 4116 
L 825 1625 
L 2419 1625 
L 2419 4116 
z
M 2253 4666 
L 3047 4666 
L 3047 1625 
L 3713 1625 
L 3713 1100 
L 3047 1100 
L 3047 0 
L 2419 0 
L 2419 1100 
L 313 1100 
L 313 1709 
L 2253 4666 
z
" transform="scale(0.015625)"/>
       </defs>
       <use xlink:href="#DejaVuSans-34"/>
      </g>
     </g>
    </g>
    <g id="xtick_3">
     <g id="line2d_5">
      <path d="M 163.217146 307.584 
L 163.217146 41.472 
" clip-path="url(#p3f2117fe73)" style="fill: none; stroke: #b0b0b0; stroke-width: 0.8; stroke-linecap: square"/>
     </g>
     <g id="line2d_6">
      <g>
       <use xlink:href="#m0042957161" x="163.217146" y="307.584" style="stroke: #000000; stroke-width: 0.8"/>
      </g>
     </g>
     <g id="text_3">
      <!-- 6 -->
      <g transform="translate(160.035896 322.182437)scale(0.1 -0.1)">
       <defs>
        <path id="DejaVuSans-36" d="M 2113 2584 
Q 1688 2584 1439 2293 
Q 1191 2003 1191 1497 
Q 1191 994 1439 701 
Q 1688 409 2113 409 
Q 2538 409 2786 701 
Q 3034 994 3034 1497 
Q 3034 2003 2786 2293 
Q 2538 2584 2113 2584 
z
M 3366 4563 
L 3366 3988 
Q 3128 4100 2886 4159 
Q 2644 4219 2406 4219 
Q 1781 4219 1451 3797 
Q 1122 3375 1075 2522 
Q 1259 2794 1537 2939 
Q 1816 3084 2150 3084 
Q 2853 3084 3261 2657 
Q 3669 2231 3669 1497 
Q 3669 778 3244 343 
Q 2819 -91 2113 -91 
Q 1303 -91 875 529 
Q 447 1150 447 2328 
Q 447 3434 972 4092 
Q 1497 4750 2381 4750 
Q 2619 4750 2861 4703 
Q 3103 4656 3366 4563 
z
" transform="scale(0.015625)"/>
       </defs>
       <use xlink:href="#DejaVuSans-36"/>
      </g>
     </g>
    </g>
    <g id="xtick_4">
     <g id="line2d_7">
      <path d="M 209.486227 307.584 
L 209.486227 41.472 
" clip-path="url(#p3f2117fe73)" style="fill: none; stroke: #b0b0b0; stroke-width: 0.8; stroke-linecap: square"/>
     </g>
     <g id="line2d_8">
      <g>
       <use xlink:href="#m0042957161" x="209.486227" y="307.584" style="stroke: #000000; stroke-width: 0.8"/>
      </g>
     </g>
     <g id="text_4">
      <!-- 8 -->
      <g transform="translate(206.304977 322.182437)scale(0.1 -0.1)">
       <defs>
        <path id="DejaVuSans-38" d="M 2034 2216 
Q 1584 2216 1326 1975 
Q 1069 1734 1069 1313 
Q 1069 891 1326 650 
Q 1584 409 2034 409 
Q 2484 409 2743 651 
Q 3003 894 3003 1313 
Q 3003 1734 2745 1975 
Q 2488 2216 2034 2216 
z
M 1403 2484 
Q 997 2584 770 2862 
Q 544 3141 544 3541 
Q 544 4100 942 4425 
Q 1341 4750 2034 4750 
Q 2731 4750 3128 4425 
Q 3525 4100 3525 3541 
Q 3525 3141 3298 2862 
Q 3072 2584 2669 2484 
Q 3125 2378 3379 2068 
Q 3634 1759 3634 1313 
Q 3634 634 3220 271 
Q 2806 -91 2034 -91 
Q 1263 -91 848 271 
Q 434 634 434 1313 
Q 434 1759 690 2068 
Q 947 2378 1403 2484 
z
M 1172 3481 
Q 1172 3119 1398 2916 
Q 1625 2713 2034 2713 
Q 2441 2713 2670 2916 
Q 2900 3119 2900 3481 
Q 2900 3844 2670 4047 
Q 2441 4250 2034 4250 
Q 1625 4250 1398 4047 
Q 1172 3844 1172 3481 
z
" transform="scale(0.015625)"/>
       </defs>
       <use xlink:href="#DejaVuSans-38"/>
      </g>
     </g>
    </g>
    <g id="xtick_5">
     <g id="line2d_9">
      <path d="M 255.755309 307.584 
L 255.755309 41.472 
" clip-path="url(#p3f2117fe73)" style="fill: none; stroke: #b0b0b0; stroke-width: 0.8; stroke-linecap: square"/>
     </g>
     <g id="line2d_10">
      <g>
       <use xlink:href="#m0042957161" x="255.755309" y="307.584" style="stroke: #000000; stroke-width: 0.8"/>
      </g>
     </g>
     <g id="text_5">
      <!-- 10 -->
      <g transform="translate(249.392809 322.182437)scale(0.1 -0.1)">
       <defs>
        <path id="DejaVuSans-31" d="M 794 531 
L 1825 531 
L 1825 4091 
L 703 3866 
L 703 4441 
L 1819 4666 
L 2450 4666 
L 2450 531 
L 3481 531 
L 3481 0 
L 794 0 
L 794 531 
z
" transform="scale(0.015625)"/>
        <path id="DejaVuSans-30" d="M 2034 4250 
Q 1547 4250 1301 3770 
Q 1056 3291 1056 2328 
Q 1056 1369 1301 889 
Q 1547 409 2034 409 
Q 2525 409 2770 889 
Q 3016 1369 3016 2328 
Q 3016 3291 2770 3770 
Q 2525 4250 2034 4250 
z
M 2034 4750 
Q 2819 4750 3233 4129 
Q 3647 3509 3647 2328 
Q 3647 1150 3233 529 
Q 2819 -91 2034 -91 
Q 1250 -91 836 529 
Q 422 1150 422 2328 
Q 422 3509 836 4129 
Q 1250 4750 2034 4750 
z
" transform="scale(0.015625)"/>
       </defs>
       <use xlink:href="#DejaVuSans-31"/>
       <use xlink:href="#DejaVuSans-30" x="63.623047"/>
      </g>
     </g>
    </g>
    <g id="xtick_6">
     <g id="line2d_11">
      <path d="M 302.02439 307.584 
L 302.02439 41.472 
" clip-path="url(#p3f2117fe73)" style="fill: none; stroke: #b0b0b0; stroke-width: 0.8; stroke-linecap: square"/>
     </g>
     <g id="line2d_12">
      <g>
       <use xlink:href="#m0042957161" x="302.02439" y="307.584" style="stroke: #000000; stroke-width: 0.8"/>
      </g>
     </g>
     <g id="text_6">
      <!-- 12 -->
      <g transform="translate(295.66189 322.182437)scale(0.1 -0.1)">
       <use xlink:href="#DejaVuSans-31"/>
       <use xlink:href="#DejaVuSans-32" x="63.623047"/>
      </g>
     </g>
    </g>
    <g id="xtick_7">
     <g id="line2d_13">
      <path d="M 348.293471 307.584 
L 348.293471 41.472 
" clip-path="url(#p3f2117fe73)" style="fill: none; stroke: #b0b0b0; stroke-width: 0.8; stroke-linecap: square"/>
     </g>
     <g id="line2d_14">
      <g>
       <use xlink:href="#m0042957161" x="348.293471" y="307.584" style="stroke: #000000; stroke-width: 0.8"/>
      </g>
     </g>
     <g id="text_7">
      <!-- 14 -->
      <g transform="translate(341.930971 322.182437)scale(0.1 -0.1)">
       <use xlink:href="#DejaVuSans-31"/>
       <use xlink:href="#DejaVuSans-34" x="63.623047"/>
      </g>
     </g>
    </g>
    <g id="xtick_8">
     <g id="line2d_15">
      <path d="M 394.562552 307.584 
L 394.562552 41.472 
" clip-path="url(#p3f2117fe73)" style="fill: none; stroke: #b0b0b0; stroke-width: 0.8; stroke-linecap: square"/>
     </g>
     <g id="line2d_16">
      <g>
       <use xlink:href="#m0042957161" x="394.562552" y="307.584" style="stroke: #000000; stroke-width: 0.8"/>
      </g>
     </g>
     <g id="text_8">
      <!-- 16 -->
      <g transform="translate(388.200052 322.182437)scale(0.1 -0.1)">
       <use xlink:href="#DejaVuSans-31"/>
       <use xlink:href="#DejaVuSans-36" x="63.623047"/>
      </g>
     </g>
    </g>
    <g id="text_9">
     <!-- Weight memory reduction -->
     <g transform="translate(170.982656 335.860562)scale(0.1 -0.1)">
      <defs>
       <path id="DejaVuSans-57" d="M 213 4666 
L 850 4666 
L 1831 722 
L 2809 4666 
L 3519 4666 
L 4500 722 
L 5478 4666 
L 6119 4666 
L 4947 0 
L 4153 0 
L 3169 4050 
L 2175 0 
L 1381 0 
L 213 4666 
z
" transform="scale(0.015625)"/>
       <path id="DejaVuSans-65" d="M 3597 1894 
L 3597 1613 
L 953 1613 
Q 991 1019 1311 708 
Q 1631 397 2203 397 
Q 2534 397 2845 478 
Q 3156 559 3463 722 
L 3463 178 
Q 3153 47 2828 -22 
Q 2503 -91 2169 -91 
Q 1331 -91 842 396 
Q 353 884 353 1716 
Q 353 2575 817 3079 
Q 1281 3584 2069 3584 
Q 2775 3584 3186 3129 
Q 3597 2675 3597 1894 
z
M 3022 2063 
Q 3016 2534 2758 2815 
Q 2500 3097 2075 3097 
Q 1594 3097 1305 2825 
Q 1016 2553 972 2059 
L 3022 2063 
z
" transform="scale(0.015625)"/>
       <path id="DejaVuSans-69" d="M 603 3500 
L 1178 3500 
L 1178 0 
L 603 0 
L 603 3500 
z
M 603 4863 
L 1178 4863 
L 1178 4134 
L 603 4134 
L 603 4863 
z
" transform="scale(0.015625)"/>
       <path id="DejaVuSans-67" d="M 2906 1791 
Q 2906 2416 2648 2759 
Q 2391 3103 1925 3103 
Q 1463 3103 1205 2759 
Q 947 2416 947 1791 
Q 947 1169 1205 825 
Q 1463 481 1925 481 
Q 2391 481 2648 825 
Q 2906 1169 2906 1791 
z
M 3481 434 
Q 3481 -459 3084 -895 
Q 2688 -1331 1869 -1331 
Q 1566 -1331 1297 -1286 
Q 1028 -1241 775 -1147 
L 775 -588 
Q 1028 -725 1275 -790 
Q 1522 -856 1778 -856 
Q 2344 -856 2625 -561 
Q 2906 -266 2906 331 
L 2906 616 
Q 2728 306 2450 153 
Q 2172 0 1784 0 
Q 1141 0 747 490 
Q 353 981 353 1791 
Q 353 2603 747 3093 
Q 1141 3584 1784 3584 
Q 2172 3584 2450 3431 
Q 2728 3278 2906 2969 
L 2906 3500 
L 3481 3500 
L 3481 434 
z
" transform="scale(0.015625)"/>
       <path id="DejaVuSans-68" d="M 3513 2113 
L 3513 0 
L 2938 0 
L 2938 2094 
Q 2938 2591 2744 2837 
Q 2550 3084 2163 3084 
Q 1697 3084 1428 2787 
Q 1159 2491 1159 1978 
L 1159 0 
L 581 0 
L 581 4863 
L 1159 4863 
L 1159 2956 
Q 1366 3272 1645 3428 
Q 1925 3584 2291 3584 
Q 2894 3584 3203 3211 
Q 3513 2838 3513 2113 
z
" transform="scale(0.015625)"/>
       <path id="DejaVuSans-74" d="M 1172 4494 
L 1172 3500 
L 2356 3500 
L 2356 3053 
L 1172 3053 
L 1172 1153 
Q 1172 725 1289 603 
Q 1406 481 1766 481 
L 2356 481 
L 2356 0 
L 1766 0 
Q 1100 0 847 248 
Q 594 497 594 1153 
L 594 3053 
L 172 3053 
L 172 3500 
L 594 3500 
L 594 4494 
L 1172 4494 
z
" transform="scale(0.015625)"/>
       <path id="DejaVuSans-20" transform="scale(0.015625)"/>
       <path id="DejaVuSans-6d" d="M 3328 2828 
Q 3544 3216 3844 3400 
Q 4144 3584 4550 3584 
Q 5097 3584 5394 3201 
Q 5691 2819 5691 2113 
L 5691 0 
L 5113 0 
L 5113 2094 
Q 5113 2597 4934 2840 
Q 4756 3084 4391 3084 
Q 3944 3084 3684 2787 
Q 3425 2491 3425 1978 
L 3425 0 
L 2847 0 
L 2847 2094 
Q 2847 2600 2669 2842 
Q 2491 3084 2119 3084 
Q 1678 3084 1418 2786 
Q 1159 2488 1159 1978 
L 1159 0 
L 581 0 
L 581 3500 
L 1159 3500 
L 1159 2956 
Q 1356 3278 1631 3431 
Q 1906 3584 2284 3584 
Q 2666 3584 2933 3390 
Q 3200 3197 3328 2828 
z
" transform="scale(0.015625)"/>
       <path id="DejaVuSans-6f" d="M 1959 3097 
Q 1497 3097 1228 2736 
Q 959 2375 959 1747 
Q 959 1119 1226 758 
Q 1494 397 1959 397 
Q 2419 397 2687 759 
Q 2956 1122 2956 1747 
Q 2956 2369 2687 2733 
Q 2419 3097 1959 3097 
z
M 1959 3584 
Q 2709 3584 3137 3096 
Q 3566 2609 3566 1747 
Q 3566 888 3137 398 
Q 2709 -91 1959 -91 
Q 1206 -91 779 398 
Q 353 888 353 1747 
Q 353 2609 779 3096 
Q 1206 3584 1959 3584 
z
" transform="scale(0.015625)"/>
       <path id="DejaVuSans-72" d="M 2631 2963 
Q 2534 3019 2420 3045 
Q 2306 3072 2169 3072 
Q 1681 3072 1420 2755 
Q 1159 2438 1159 1844 
L 1159 0 
L 581 0 
L 581 3500 
L 1159 3500 
L 1159 2956 
Q 1341 3275 1631 3429 
Q 1922 3584 2338 3584 
Q 2397 3584 2469 3576 
Q 2541 3569 2628 3553 
L 2631 2963 
z
" transform="scale(0.015625)"/>
       <path id="DejaVuSans-79" d="M 2059 -325 
Q 1816 -950 1584 -1140 
Q 1353 -1331 966 -1331 
L 506 -1331 
L 506 -850 
L 844 -850 
Q 1081 -850 1212 -737 
Q 1344 -625 1503 -206 
L 1606 56 
L 191 3500 
L 800 3500 
L 1894 763 
L 2988 3500 
L 3597 3500 
L 2059 -325 
z
" transform="scale(0.015625)"/>
       <path id="DejaVuSans-64" d="M 2906 2969 
L 2906 4863 
L 3481 4863 
L 3481 0 
L 2906 0 
L 2906 525 
Q 2725 213 2448 61 
Q 2172 -91 1784 -91 
Q 1150 -91 751 415 
Q 353 922 353 1747 
Q 353 2572 751 3078 
Q 1150 3584 1784 3584 
Q 2172 3584 2448 3432 
Q 2725 3281 2906 2969 
z
M 947 1747 
Q 947 1113 1208 752 
Q 1469 391 1925 391 
Q 2381 391 2643 752 
Q 2906 1113 2906 1747 
Q 2906 2381 2643 2742 
Q 2381 3103 1925 3103 
Q 1469 3103 1208 2742 
Q 947 2381 947 1747 
z
" transform="scale(0.015625)"/>
       <path id="DejaVuSans-75" d="M 544 1381 
L 544 3500 
L 1119 3500 
L 1119 1403 
Q 1119 906 1312 657 
Q 1506 409 1894 409 
Q 2359 409 2629 706 
Q 2900 1003 2900 1516 
L 2900 3500 
L 3475 3500 
L 3475 0 
L 2900 0 
L 2900 538 
Q 2691 219 2414 64 
Q 2138 -91 1772 -91 
Q 1169 -91 856 284 
Q 544 659 544 1381 
z
M 1991 3584 
L 1991 3584 
z
" transform="scale(0.015625)"/>
       <path id="DejaVuSans-63" d="M 3122 3366 
L 3122 2828 
Q 2878 2963 2633 3030 
Q 2388 3097 2138 3097 
Q 1578 3097 1268 2742 
Q 959 2388 959 1747 
Q 959 1106 1268 751 
Q 1578 397 2138 397 
Q 2388 397 2633 464 
Q 2878 531 3122 666 
L 3122 134 
Q 2881 22 2623 -34 
Q 2366 -91 2075 -91 
Q 1284 -91 818 406 
Q 353 903 353 1747 
Q 353 2603 823 3093 
Q 1294 3584 2113 3584 
Q 2378 3584 2631 3529 
Q 2884 3475 3122 3366 
z
" transform="scale(0.015625)"/>
       <path id="DejaVuSans-6e" d="M 3513 2113 
L 3513 0 
L 2938 0 
L 2938 2094 
Q 2938 2591 2744 2837 
Q 2550 3084 2163 3084 
Q 1697 3084 1428 2787 
Q 1159 2491 1159 1978 
L 1159 0 
L 581 0 
L 581 3500 
L 1159 3500 
L 1159 2956 
Q 1366 3272 1645 3428 
Q 1925 3584 2291 3584 
Q 2894 3584 3203 3211 
Q 3513 2838 3513 2113 
z
" transform="scale(0.015625)"/>
      </defs>
      <use xlink:href="#DejaVuSans-57"/>
      <use xlink:href="#DejaVuSans-65" x="93.001953"/>
      <use xlink:href="#DejaVuSans-69" x="154.525391"/>
      <use xlink:href="#DejaVuSans-67" x="182.308594"/>
      <use xlink:href="#DejaVuSans-68" x="245.785156"/>
      <use xlink:href="#DejaVuSans-74" x="309.164062"/>
      <use xlink:href="#DejaVuSans-20" x="348.373047"/>
      <use xlink:href="#DejaVuSans-6d" x="380.160156"/>
      <use xlink:href="#DejaVuSans-65" x="477.572266"/>
      <use xlink:href="#DejaVuSans-6d" x="539.095703"/>
      <use xlink:href="#DejaVuSans-6f" x="636.507812"/>
      <use xlink:href="#DejaVuSans-72" x="697.689453"/>
      <use xlink:href="#DejaVuSans-79" x="738.802734"/>
      <use xlink:href="#DejaVuSans-20" x="797.982422"/>
      <use xlink:href="#DejaVuSans-72" x="829.769531"/>
      <use xlink:href="#DejaVuSans-65" x="868.632812"/>
      <use xlink:href="#DejaVuSans-64" x="930.15625"/>
      <use xlink:href="#DejaVuSans-75" x="993.632812"/>
      <use xlink:href="#DejaVuSans-63" x="1057.011719"/>
      <use xlink:href="#DejaVuSans-74" x="1111.992188"/>
      <use xlink:href="#DejaVuSans-69" x="1151.201172"/>
      <use xlink:href="#DejaVuSans-6f" x="1178.984375"/>
      <use xlink:href="#DejaVuSans-6e" x="1240.166016"/>
     </g>
    </g>
   </g>
   <g id="matplotlib.axis_2">
    <g id="ytick_1">
     <g id="line2d_17">
      <path d="M 57.6 260.098497 
L 414.72 260.098497 
" clip-path="url(#p3f2117fe73)" style="fill: none; stroke: #b0b0b0; stroke-width: 0.8; stroke-linecap: square"/>
     </g>
     <g id="line2d_18">
      <defs>
       <path id="m8f7697170f" d="M 0 0 
L -3.5 0 
" style="stroke: #000000; stroke-width: 0.8"/>
      </defs>
      <g>
       <use xlink:href="#m8f7697170f" x="57.6" y="260.098497" style="stroke: #000000; stroke-width: 0.8"/>
      </g>
     </g>
     <g id="text_10">
      <!-- 20 -->
      <g transform="translate(37.875 263.897716)scale(0.1 -0.1)">
       <use xlink:href="#DejaVuSans-32"/>
       <use xlink:href="#DejaVuSans-30" x="63.623047"/>
      </g>
     </g>
    </g>
    <g id="ytick_2">
     <g id="line2d_19">
      <path d="M 57.6 205.06039 
L 414.72 205.06039 
" clip-path="url(#p3f2117fe73)" style="fill: none; stroke: #b0b0b0; stroke-width: 0.8; stroke-linecap: square"/>
     </g>
     <g id="line2d_20">
      <g>
       <use xlink:href="#m8f7697170f" x="57.6" y="205.06039" style="stroke: #000000; stroke-width: 0.8"/>
      </g>
     </g>
     <g id="text_11">
      <!-- 40 -->
      <g transform="translate(37.875 208.859609)scale(0.1 -0.1)">
       <use xlink:href="#DejaVuSans-34"/>
       <use xlink:href="#DejaVuSans-30" x="63.623047"/>
      </g>
     </g>
    </g>
    <g id="ytick_3">
     <g id="line2d_21">
      <path d="M 57.6 150.022283 
L 414.72 150.022283 
" clip-path="url(#p3f2117fe73)" style="fill: none; stroke: #b0b0b0; stroke-width: 0.8; stroke-linecap: square"/>
     </g>
     <g id="line2d_22">
      <g>
       <use xlink:href="#m8f7697170f" x="57.6" y="150.022283" style="stroke: #000000; stroke-width: 0.8"/>
      </g>
     </g>
     <g id="text_12">
      <!-- 60 -->
      <g transform="translate(37.875 153.821502)scale(0.1 -0.1)">
       <use xlink:href="#DejaVuSans-36"/>
       <use xlink:href="#DejaVuSans-30" x="63.623047"/>
      </g>
     </g>
    </g>
    <g id="ytick_4">
     <g id="line2d_23">
      <path d="M 57.6 94.984176 
L 414.72 94.984176 
" clip-path="url(#p3f2117fe73)" style="fill: none; stroke: #b0b0b0; stroke-width: 0.8; stroke-linecap: square"/>
     </g>
     <g id="line2d_24">
      <g>
       <use xlink:href="#m8f7697170f" x="57.6" y="94.984176" style="stroke: #000000; stroke-width: 0.8"/>
      </g>
     </g>
     <g id="text_13">
      <!-- 80 -->
      <g transform="translate(37.875 98.783394)scale(0.1 -0.1)">
       <use xlink:href="#DejaVuSans-38"/>
       <use xlink:href="#DejaVuSans-30" x="63.623047"/>
      </g>
     </g>
    </g>
    <g id="text_14">
     <!-- Accuracy -->
     <g transform="translate(31.795312 197.356125)rotate(-90)scale(0.1 -0.1)">
      <defs>
       <path id="DejaVuSans-41" d="M 2188 4044 
L 1331 1722 
L 3047 1722 
L 2188 4044 
z
M 1831 4666 
L 2547 4666 
L 4325 0 
L 3669 0 
L 3244 1197 
L 1141 1197 
L 716 0 
L 50 0 
L 1831 4666 
z
" transform="scale(0.015625)"/>
       <path id="DejaVuSans-61" d="M 2194 1759 
Q 1497 1759 1228 1600 
Q 959 1441 959 1056 
Q 959 750 1161 570 
Q 1363 391 1709 391 
Q 2188 391 2477 730 
Q 2766 1069 2766 1631 
L 2766 1759 
L 2194 1759 
z
M 3341 1997 
L 3341 0 
L 2766 0 
L 2766 531 
Q 2569 213 2275 61 
Q 1981 -91 1556 -91 
Q 1019 -91 701 211 
Q 384 513 384 1019 
Q 384 1609 779 1909 
Q 1175 2209 1959 2209 
L 2766 2209 
L 2766 2266 
Q 2766 2663 2505 2880 
Q 2244 3097 1772 3097 
Q 1472 3097 1187 3025 
Q 903 2953 641 2809 
L 641 3341 
Q 956 3463 1253 3523 
Q 1550 3584 1831 3584 
Q 2591 3584 2966 3190 
Q 3341 2797 3341 1997 
z
" transform="scale(0.015625)"/>
      </defs>
      <use xlink:href="#DejaVuSans-41"/>
      <use xlink:href="#DejaVuSans-63" x="66.658203"/>
      <use xlink:href="#DejaVuSans-63" x="121.638672"/>
      <use xlink:href="#DejaVuSans-75" x="176.619141"/>
      <use xlink:href="#DejaVuSans-72" x="239.998047"/>
      <use xlink:href="#DejaVuSans-61" x="281.111328"/>
      <use xlink:href="#DejaVuSans-63" x="342.390625"/>
      <use xlink:href="#DejaVuSans-79" x="397.371094"/>
     </g>
    </g>
   </g>
   <g id="line2d_25">
    <path d="M 398.487273 212.435496 
L 272.916513 60.860549 
L 271.11851 56.072234 
L 230.345299 54.586205 
L 209.452573 53.595519 
L 73.832727 53.568 
" clip-path="url(#p3f2117fe73)" style="fill: none; stroke: #000084; stroke-width: 1.5; stroke-linecap: square"/>
   </g>
   <g id="patch_3">
    <path d="M 57.6 307.584 
L 57.6 41.472 
" style="fill: none; stroke: #000000; stroke-width: 0.8; stroke-linejoin: miter; stroke-linecap: square"/>
   </g>
   <g id="patch_4">
    <path d="M 414.72 307.584 
L 414.72 41.472 
" style="fill: none; stroke: #000000; stroke-width: 0.8; stroke-linejoin: miter; stroke-linecap: square"/>
   </g>
   <g id="patch_5">
    <path d="M 57.6 307.584 
L 414.72 307.584 
" style="fill: none; stroke: #000000; stroke-width: 0.8; stroke-linejoin: miter; stroke-linecap: square"/>
   </g>
   <g id="patch_6">
    <path d="M 57.6 41.472 
L 414.72 41.472 
" style="fill: none; stroke: #000000; stroke-width: 0.8; stroke-linejoin: miter; stroke-linecap: square"/>
   </g>
   <g id="text_15">
    <!-- DeepCaps_fashion-mnist -->
    <g transform="translate(161.731875 35.472)scale(0.12 -0.12)">
     <defs>
      <path id="DejaVuSans-44" d="M 1259 4147 
L 1259 519 
L 2022 519 
Q 2988 519 3436 956 
Q 3884 1394 3884 2338 
Q 3884 3275 3436 3711 
Q 2988 4147 2022 4147 
L 1259 4147 
z
M 628 4666 
L 1925 4666 
Q 3281 4666 3915 4102 
Q 4550 3538 4550 2338 
Q 4550 1131 3912 565 
Q 3275 0 1925 0 
L 628 0 
L 628 4666 
z
" transform="scale(0.015625)"/>
      <path id="DejaVuSans-70" d="M 1159 525 
L 1159 -1331 
L 581 -1331 
L 581 3500 
L 1159 3500 
L 1159 2969 
Q 1341 3281 1617 3432 
Q 1894 3584 2278 3584 
Q 2916 3584 3314 3078 
Q 3713 2572 3713 1747 
Q 3713 922 3314 415 
Q 2916 -91 2278 -91 
Q 1894 -91 1617 61 
Q 1341 213 1159 525 
z
M 3116 1747 
Q 3116 2381 2855 2742 
Q 2594 3103 2138 3103 
Q 1681 3103 1420 2742 
Q 1159 2381 1159 1747 
Q 1159 1113 1420 752 
Q 1681 391 2138 391 
Q 2594 391 2855 752 
Q 3116 1113 3116 1747 
z
" transform="scale(0.015625)"/>
      <path id="DejaVuSans-43" d="M 4122 4306 
L 4122 3641 
Q 3803 3938 3442 4084 
Q 3081 4231 2675 4231 
Q 1875 4231 1450 3742 
Q 1025 3253 1025 2328 
Q 1025 1406 1450 917 
Q 1875 428 2675 428 
Q 3081 428 3442 575 
Q 3803 722 4122 1019 
L 4122 359 
Q 3791 134 3420 21 
Q 3050 -91 2638 -91 
Q 1578 -91 968 557 
Q 359 1206 359 2328 
Q 359 3453 968 4101 
Q 1578 4750 2638 4750 
Q 3056 4750 3426 4639 
Q 3797 4528 4122 4306 
z
" transform="scale(0.015625)"/>
      <path id="DejaVuSans-73" d="M 2834 3397 
L 2834 2853 
Q 2591 2978 2328 3040 
Q 2066 3103 1784 3103 
Q 1356 3103 1142 2972 
Q 928 2841 928 2578 
Q 928 2378 1081 2264 
Q 1234 2150 1697 2047 
L 1894 2003 
Q 2506 1872 2764 1633 
Q 3022 1394 3022 966 
Q 3022 478 2636 193 
Q 2250 -91 1575 -91 
Q 1294 -91 989 -36 
Q 684 19 347 128 
L 347 722 
Q 666 556 975 473 
Q 1284 391 1588 391 
Q 1994 391 2212 530 
Q 2431 669 2431 922 
Q 2431 1156 2273 1281 
Q 2116 1406 1581 1522 
L 1381 1569 
Q 847 1681 609 1914 
Q 372 2147 372 2553 
Q 372 3047 722 3315 
Q 1072 3584 1716 3584 
Q 2034 3584 2315 3537 
Q 2597 3491 2834 3397 
z
" transform="scale(0.015625)"/>
      <path id="DejaVuSans-5f" d="M 3263 -1063 
L 3263 -1509 
L -63 -1509 
L -63 -1063 
L 3263 -1063 
z
" transform="scale(0.015625)"/>
      <path id="DejaVuSans-66" d="M 2375 4863 
L 2375 4384 
L 1825 4384 
Q 1516 4384 1395 4259 
Q 1275 4134 1275 3809 
L 1275 3500 
L 2222 3500 
L 2222 3053 
L 1275 3053 
L 1275 0 
L 697 0 
L 697 3053 
L 147 3053 
L 147 3500 
L 697 3500 
L 697 3744 
Q 697 4328 969 4595 
Q 1241 4863 1831 4863 
L 2375 4863 
z
" transform="scale(0.015625)"/>
      <path id="DejaVuSans-2d" d="M 313 2009 
L 1997 2009 
L 1997 1497 
L 313 1497 
L 313 2009 
z
" transform="scale(0.015625)"/>
     </defs>
     <use xlink:href="#DejaVuSans-44"/>
     <use xlink:href="#DejaVuSans-65" x="77.001953"/>
     <use xlink:href="#DejaVuSans-65" x="138.525391"/>
     <use xlink:href="#DejaVuSans-70" x="200.048828"/>
     <use xlink:href="#DejaVuSans-43" x="263.525391"/>
     <use xlink:href="#DejaVuSans-61" x="333.349609"/>
     <use xlink:href="#DejaVuSans-70" x="394.628906"/>
     <use xlink:href="#DejaVuSans-73" x="458.105469"/>
     <use xlink:href="#DejaVuSans-5f" x="510.205078"/>
     <use xlink:href="#DejaVuSans-66" x="560.205078"/>
     <use xlink:href="#DejaVuSans-61" x="595.410156"/>
     <use xlink:href="#DejaVuSans-73" x="656.689453"/>
     <use xlink:href="#DejaVuSans-68" x="708.789062"/>
     <use xlink:href="#DejaVuSans-69" x="772.167969"/>
     <use xlink:href="#DejaVuSans-6f" x="799.951172"/>
     <use xlink:href="#DejaVuSans-6e" x="861.132812"/>
     <use xlink:href="#DejaVuSans-2d" x="924.511719"/>
     <use xlink:href="#DejaVuSans-6d" x="960.595703"/>
     <use xlink:href="#DejaVuSans-6e" x="1058.007812"/>
     <use xlink:href="#DejaVuSans-69" x="1121.386719"/>
     <use xlink:href="#DejaVuSans-73" x="1149.169922"/>
     <use xlink:href="#DejaVuSans-74" x="1201.269531"/>
    </g>
   </g>
  </g>
 </g>
 <defs>
  <clipPath id="p3f2117fe73">
   <rect x="57.6" y="41.472" width="357.12" height="266.112"/>
  </clipPath>
 </defs>
</svg>
